
<svg id="Laag_1" data-name="Laag 1" xmlns="http://www.w3.org/2000/svg" xmlns:xlink="http://www.w3.org/1999/xlink" viewBox="0 0 500 500"><defs><style>.cls-1{fill:none;}.cls-2{fill:#000000;}.cls-3{fill:#fff;}.cls-4{clip-path:url(#clip-path);}.cls-5{fill:#ffeb00;}</style><clipPath id="clip-path"><rect class="cls-1" x="54.87" y="149.4" width="394.26" height="201.19"/></clipPath></defs><title>ckc-logo</title><circle class="cls-2" cx="250" cy="250" r="250"/><path class="cls-3" d="M91.15,323.28a10.32,10.32,0,0,0,4.78-1.12,11.48,11.48,0,0,0,3.75-3,14.08,14.08,0,0,0,2.41-4.4,15.52,15.52,0,0,0,.86-5.16,14.59,14.59,0,0,0-.94-5.3A13.33,13.33,0,0,0,99.38,300a12.13,12.13,0,0,0-4-2.84,11.84,11.84,0,0,0-5-1,11,11,0,0,0-3.36.56,12.08,12.08,0,0,0-3.19,1.6,14,14,0,0,0-2.63,2.41,10.37,10.37,0,0,0-1.77,3v10.59a15.39,15.39,0,0,0,4.74,6.42,10.85,10.85,0,0,0,6.9,2.55Zm3.79,9.82a17.6,17.6,0,0,1-9.22-2.37,16.94,16.94,0,0,1-6.21-6.42V350.6H68V287.08H78.05v7.76a18.57,18.57,0,0,1,6.46-6.25,18,18,0,0,1,9.14-2.28,19.38,19.38,0,0,1,8.44,1.85,20.93,20.93,0,0,1,6.68,5,23.42,23.42,0,0,1,4.4,7.41,25.58,25.58,0,0,1,1.59,9,28.37,28.37,0,0,1-1.47,9.22,23.43,23.43,0,0,1-4.09,7.49,18.94,18.94,0,0,1-6.29,5,17.7,17.7,0,0,1-8,1.81Z"/><path class="cls-3" d="M140.88,324.65a15,15,0,0,0,5.55-1,10.17,10.17,0,0,0,4.1-2.75,4.17,4.17,0,0,0,1.9-3.28v-5.17a28.49,28.49,0,0,0-4.49-1.25,24.61,24.61,0,0,0-4.65-.47,12.3,12.3,0,0,0-7.32,2,6.08,6.08,0,0,0-2.85,5.13,6.2,6.2,0,0,0,2.24,4.87,8.15,8.15,0,0,0,5.52,1.93Zm-3.28,8.45a17.13,17.13,0,0,1-6.12-1.08,14.67,14.67,0,0,1-4.91-3,14,14,0,0,1-3.23-4.53,13.73,13.73,0,0,1-1.16-5.68,12.55,12.55,0,0,1,1.42-5.91,13.53,13.53,0,0,1,4-4.6,19.6,19.6,0,0,1,6.08-3,26.4,26.4,0,0,1,7.75-1.08,34,34,0,0,1,5.91.52,24.7,24.7,0,0,1,5.13,1.46v-2.58a9,9,0,0,0-2.55-6.89c-1.69-1.61-4.21-2.41-7.54-2.41a19.73,19.73,0,0,0-7.06,1.29,32.46,32.46,0,0,0-7.07,3.79l-3.53-7.33a33.31,33.31,0,0,1,18.78-5.77q9.73,0,15.13,4.78T164,304.92V319a3.83,3.83,0,0,0,.69,2.58,3.32,3.32,0,0,0,2.41.86v9.83a25.14,25.14,0,0,1-3.06.47c-.94.09-1.76.13-2.45.13a8,8,0,0,1-5-1.5,6.21,6.21,0,0,1-2.15-3.84l-.26-2.5a19.87,19.87,0,0,1-7.33,6,21,21,0,0,1-9.22,2.07Z"/><path class="cls-3" d="M204.64,297.08a22.87,22.87,0,0,0-9.39,2,11.86,11.86,0,0,0-5.94,5.82v27.32H177.76V287.08h10.6v9.66a21,21,0,0,1,6.07-7.5,12.85,12.85,0,0,1,7.89-2.85c.63,0,1.1,0,1.42.05a8.47,8.47,0,0,1,.9.13v10.51Z"/><path class="cls-3" d="M242.1,329.91a50.27,50.27,0,0,1-5.73,2.07,24.31,24.31,0,0,1-7.11,1,16.46,16.46,0,0,1-4.52-.6,10,10,0,0,1-3.71-1.94,9.51,9.51,0,0,1-2.54-3.44,12.53,12.53,0,0,1-1-5.13V296h-5.86v-8.88h5.86V272.44h11.55v14.64h9.57V296h-9.57V318a4,4,0,0,0,1.29,3.4,4.92,4.92,0,0,0,3.11,1,10.44,10.44,0,0,0,3.53-.6c1.15-.4,2.07-.74,2.76-1l2.32,9.13Z"/><path class="cls-3" d="M292.31,332.24H280.77V306.91c0-3.63-.64-6.27-1.9-7.93a6.2,6.2,0,0,0-5.25-2.5,9.89,9.89,0,0,0-3.54.69,13.11,13.11,0,0,0-3.4,1.93,16,16,0,0,0-2.89,3,11.72,11.72,0,0,0-1.89,3.79v26.37H250.35V287.08h10.42v8.36a17.15,17.15,0,0,1,7.24-6.72,23.23,23.23,0,0,1,10.69-2.41,13.65,13.65,0,0,1,6.89,1.55,11.18,11.18,0,0,1,4.14,4.05,16.8,16.8,0,0,1,2,5.69,36.59,36.59,0,0,1,.56,6.46v28.18Z"/><path class="cls-3" d="M337.88,305.87a12,12,0,0,0-3.75-8.14,12.06,12.06,0,0,0-12.4-2.24,11.05,11.05,0,0,0-3.58,2.28,11.9,11.9,0,0,0-2.54,3.53,12.42,12.42,0,0,0-1.16,4.57ZM326.16,333.1a25.13,25.13,0,0,1-9.82-1.85,22.71,22.71,0,0,1-7.5-5,22.43,22.43,0,0,1-4.78-7.41,23.84,23.84,0,0,1-1.68-8.88,25.15,25.15,0,0,1,1.63-9.09,22.42,22.42,0,0,1,4.75-7.5,22.79,22.79,0,0,1,7.54-5.13,25.14,25.14,0,0,1,9.95-1.89,24.61,24.61,0,0,1,9.87,1.89,22.74,22.74,0,0,1,7.41,5.09,21.59,21.59,0,0,1,4.65,7.41,24.74,24.74,0,0,1,1.59,8.79c0,.75,0,1.47,0,2.15a8.52,8.52,0,0,1-.22,1.73h-34.9a13.57,13.57,0,0,0,1.3,4.74,11.76,11.76,0,0,0,2.67,3.53,11.51,11.51,0,0,0,3.71,2.24,12,12,0,0,0,4.3.77A13.42,13.42,0,0,0,333.1,323a8.94,8.94,0,0,0,4.18-4.44l9.91,2.76a20.25,20.25,0,0,1-8,8.49,24.73,24.73,0,0,1-13.06,3.31Z"/><path class="cls-3" d="M386.64,297.08a22.92,22.92,0,0,0-9.4,2,11.94,11.94,0,0,0-5.94,5.82v27.32H359.75V287.08h10.6v9.66a20.88,20.88,0,0,1,6.08-7.5,12.8,12.8,0,0,1,7.88-2.85c.63,0,1.11,0,1.42.05a8.3,8.3,0,0,1,.91.13v10.51Z"/><g class="cls-4"><path class="cls-3" d="M413.69,333.1a39.73,39.73,0,0,1-5.73-.43,48.25,48.25,0,0,1-5.81-1.21,38.6,38.6,0,0,1-5.43-1.89,26.54,26.54,0,0,1-4.57-2.5l4.65-7.84q8.63,5.59,16.64,5.6a10.57,10.57,0,0,0,5.68-1.3,4.09,4.09,0,0,0,2.07-3.7,3.77,3.77,0,0,0-2.45-3.57,46,46,0,0,0-8.23-2.55,67.86,67.86,0,0,1-7.5-2.15,18.46,18.46,0,0,1-5-2.59,8.88,8.88,0,0,1-2.75-3.36,10.66,10.66,0,0,1-.87-4.48,13.45,13.45,0,0,1,5.22-10.9,17.52,17.52,0,0,1,5.77-3,24,24,0,0,1,7.2-1,31.9,31.9,0,0,1,9.6,1.51,38.49,38.49,0,0,1,8.92,4.1L426.36,299a31.18,31.18,0,0,0-7.15-3.49,21.85,21.85,0,0,0-6.72-1.08,10.34,10.34,0,0,0-5.22,1.21,4.13,4.13,0,0,0-2.11,3.88,3.5,3.5,0,0,0,2,3.35,37.94,37.94,0,0,0,7.19,2.33c3.22.81,6,1.61,8.23,2.42a23.09,23.09,0,0,1,5.61,2.75,9.64,9.64,0,0,1,3.18,3.58,11,11,0,0,1,1,4.87,12.86,12.86,0,0,1-5.09,10.47,17.52,17.52,0,0,1-5.9,2.84,28.26,28.26,0,0,1-7.72,1Z"/><path class="cls-5" d="M108.19,243.22c-13-.78-26.58-10.16-26.58-35.34,0-13,2.5-35.65,26.58-38V149.4c-39.09,1.41-53.32,30.81-53.32,57.08,0,28,15,45.65,30.18,52.69,9.22,4.38,16.73,4.69,23.14,5v-21Zm49.72-58.32c-1.56-6.88-7.19-33.77-45.5-35.5v20.49c15.48,1.41,19.39,11.73,20.32,16.89l25.18-1.88Zm-24.39,38.31c-.63,7.19-4.54,17.82-21.11,20v21c9.07-.78,21.89-1.87,32.83-11.57,11.11-9.69,13.45-22.67,14.39-27.83l-26.11-1.56Zm64.1,38.62V151.44h-25V261.83Zm42.69,0h30.8l-53-60.36,50.5-50H236.4l-34.87,37.37V216l38.78,45.81Zm80.13-18.61c-13-.78-26.58-10.16-26.58-35.34,0-13,2.51-35.65,26.58-38V149.41c-39.09,1.4-53.31,30.8-53.31,57.07,0,28,15,45.65,30.17,52.69,9.23,4.38,16.73,4.69,23.14,5v-21Zm49.72-58.32c-1.56-6.88-7.19-33.77-45.49-35.49v20.48c15.47,1.41,19.38,11.73,20.32,16.89l25.17-1.88Zm-24.39,38.31c-.62,7.19-4.53,17.82-21.1,20v21c9.06-.78,21.89-1.87,32.83-11.57,11.1-9.69,13.45-22.67,14.39-27.83l-26.12-1.56Z"/></g><path class="cls-5" d="M424.16,202.42c0-6.08-4.35-12.27-13.15-12.27-9.34,0-13.69,6.62-13.69,12.7-.1,5.11,3.48,9.78,7.39,13.8,1.09,1,2.06,2.07,3.15,3.15,7.93-4,16.3-9.56,16.3-17.38Zm-15.75,57.36c9,0,16.51-4.24,21.94-10.76l-23.58-23.89c-7,3.8-14.33,9.66-14.33,19.11,0,8.69,6.62,15.54,16,15.54Zm-4.68-37.59-1.63-1.73c-4.67-5.11-9.56-10.54-9.34-17.71,0-7.5,5.65-16.84,18.58-16.84,11.62,0,17.59,7.93,17.59,16.4,0,9-9.34,16.19-17.92,20.64l22.17,22a42.86,42.86,0,0,0,6.51-22.16c0-.55,0-3.16,0-3.16h4.56s0,2.61,0,3.16a47.8,47.8,0,0,1-7.82,25.31l12.7,12.59-3.8,3.58-11.94-12c-6.19,7.27-14.77,11.94-25.1,11.94-13,0-20.64-9.23-20.64-19.88,0-11.4,8.37-17.92,16.08-22.05Z"/></svg>