<svg xmlns="http://www.w3.org/2000/svg" viewBox="0 0 416.87 212.73"><defs><style>.cls-1{fill:#1d1d1b;}</style></defs><title>ckc-logo</title><g id="Laag_2" data-name="Laag 2"><g id="ckc-logo"><path class="cls-1" d="M38.36,183.85a11,11,0,0,0,5.06-1.19,12.13,12.13,0,0,0,4-3.19,15,15,0,0,0,2.55-4.64,16.57,16.57,0,0,0,.91-5.47,15.38,15.38,0,0,0-1-5.6,13.8,13.8,0,0,0-2.78-4.51,12.85,12.85,0,0,0-4.19-3,12.55,12.55,0,0,0-5.24-1.09,11.58,11.58,0,0,0-3.55.59,12.25,12.25,0,0,0-3.37,1.69A14.58,14.58,0,0,0,27.93,160a10.65,10.65,0,0,0-1.87,3.19v11.21a16.19,16.19,0,0,0,5,6.79,11.49,11.49,0,0,0,7.29,2.69Zm4,10.38a18.62,18.62,0,0,1-9.75-2.5,17.75,17.75,0,0,1-6.56-6.79v27.79H13.85V145.58H24.51v8.2a19.43,19.43,0,0,1,6.83-6.6A19,19,0,0,1,41,144.76a20.38,20.38,0,0,1,8.93,2A22,22,0,0,1,57,152a24.65,24.65,0,0,1,4.65,7.83,27,27,0,0,1,1.68,9.52,30.18,30.18,0,0,1-1.54,9.75A25,25,0,0,1,57.45,187a20.16,20.16,0,0,1-6.65,5.29,18.73,18.73,0,0,1-8.43,1.91Z"/><path class="cls-1" d="M90.94,185.3a16,16,0,0,0,5.88-1.09,10.69,10.69,0,0,0,4.32-2.91,4.39,4.39,0,0,0,2-3.47v-5.46a29.24,29.24,0,0,0-4.74-1.32,25,25,0,0,0-4.92-.5,13,13,0,0,0-7.74,2.14,6.42,6.42,0,0,0-3,5.42,6.54,6.54,0,0,0,2.37,5.15,8.62,8.62,0,0,0,5.83,2Zm-3.46,8.93A18.29,18.29,0,0,1,81,193.1a15.53,15.53,0,0,1-5.2-3.2,14.88,14.88,0,0,1-3.41-4.78,14.45,14.45,0,0,1-1.23-6,13.25,13.25,0,0,1,1.5-6.24A14.39,14.39,0,0,1,76.86,168a20.84,20.84,0,0,1,6.43-3.14,28,28,0,0,1,8.2-1.14,35.84,35.84,0,0,1,6.24.55,25.14,25.14,0,0,1,5.42,1.55v-2.74q0-4.73-2.69-7.29c-1.79-1.69-4.45-2.55-8-2.55A21.14,21.14,0,0,0,85,154.6a35,35,0,0,0-7.48,4l-3.73-7.74a35.19,35.19,0,0,1,19.86-6.11q10.31,0,16,5.06t5.7,14.62v14.85a4.06,4.06,0,0,0,.73,2.73,3.51,3.51,0,0,0,2.55.92v10.38a28.9,28.9,0,0,1-3.24.5c-1,.1-1.87.14-2.59.14a8.5,8.5,0,0,1-5.29-1.59,6.57,6.57,0,0,1-2.28-4.06l-.27-2.64a21.18,21.18,0,0,1-7.74,6.38,22.22,22.22,0,0,1-9.75,2.18Z"/><path class="cls-1" d="M158.36,156.15a24.2,24.2,0,0,0-9.93,2.14,12.53,12.53,0,0,0-6.29,6.15v28.88H129.93V145.58h11.21v10.2a22.26,22.26,0,0,1,6.42-7.92,13.6,13.6,0,0,1,8.34-3c.67,0,1.17,0,1.5.05a9.27,9.27,0,0,1,1,.13v11.12Z"/><path class="cls-1" d="M198,190.86a53.26,53.26,0,0,1-6.06,2.19,25.71,25.71,0,0,1-7.52,1.09,17.53,17.53,0,0,1-4.78-.63,10.58,10.58,0,0,1-3.92-2,10.16,10.16,0,0,1-2.69-3.65,13.15,13.15,0,0,1-1-5.42V155h-6.2v-9.39H172V130.09h12.21v15.49h10.11V155H184.21v23.32a4.25,4.25,0,0,0,1.37,3.6,5.21,5.21,0,0,0,3.28,1.05,11.08,11.08,0,0,0,3.73-.64c1.22-.42,2.19-.79,2.92-1.1l2.46,9.66Z"/><path class="cls-1" d="M251.06,193.32H238.85V166.54c0-3.83-.67-6.62-2-8.39a6.59,6.59,0,0,0-5.55-2.64,10.57,10.57,0,0,0-3.74.73,13.92,13.92,0,0,0-3.6,2,16.85,16.85,0,0,0-3,3.14,12.37,12.37,0,0,0-2,4v27.88H206.68V145.58h11v8.84a18.05,18.05,0,0,1,7.65-7.11,24.56,24.56,0,0,1,11.3-2.55A14.44,14.44,0,0,1,244,146.4a11.92,11.92,0,0,1,4.38,4.28,17.88,17.88,0,0,1,2.13,6,39,39,0,0,1,.6,6.84v29.79Z"/><path class="cls-1" d="M299.24,165.44a12.77,12.77,0,0,0-4-8.61,12.18,12.18,0,0,0-8.52-3.23,12.35,12.35,0,0,0-4.61.86,12.16,12.16,0,0,0-3.78,2.42,12.56,12.56,0,0,0-2.69,3.74,13.22,13.22,0,0,0-1.22,4.82Zm-12.4,28.79a26.42,26.42,0,0,1-10.38-2,23.72,23.72,0,0,1-7.93-5.33,23.39,23.39,0,0,1-5-7.83,25,25,0,0,1-1.78-9.38,26.7,26.7,0,0,1,1.73-9.62,23.36,23.36,0,0,1,5-7.92,24.07,24.07,0,0,1,8-5.43,26.71,26.71,0,0,1,10.53-2,26,26,0,0,1,10.43,2,24,24,0,0,1,7.84,5.38,23.1,23.1,0,0,1,4.92,7.83,26.22,26.22,0,0,1,1.68,9.3c0,.79,0,1.55,0,2.28a10.18,10.18,0,0,1-.23,1.82h-36.9a14.12,14.12,0,0,0,1.37,5,12.17,12.17,0,0,0,6.74,6.1,12.73,12.73,0,0,0,4.55.82,14.13,14.13,0,0,0,6.88-1.77,9.39,9.39,0,0,0,4.42-4.69l10.48,2.91a21.27,21.27,0,0,1-8.43,9,26.22,26.22,0,0,1-13.81,3.5Z"/><path class="cls-1" d="M350.79,156.15a24.22,24.22,0,0,0-9.94,2.14,12.55,12.55,0,0,0-6.28,6.15v28.88H322.36V145.58h11.21v10.2a22.15,22.15,0,0,1,6.42-7.92,13.55,13.55,0,0,1,8.34-3c.66,0,1.17,0,1.5.05a9.27,9.27,0,0,1,1,.13v11.12Z"/><path class="cls-1" d="M379.39,194.23a42.63,42.63,0,0,1-6.05-.45,51.56,51.56,0,0,1-6.15-1.28,41.3,41.3,0,0,1-5.74-2,28.13,28.13,0,0,1-4.83-2.64l4.92-8.3q9.1,5.92,17.59,5.93a11.33,11.33,0,0,0,6-1.37,4.35,4.35,0,0,0,2.18-3.92,4,4,0,0,0-2.59-3.78,49.13,49.13,0,0,0-8.71-2.68,72.79,72.79,0,0,1-7.92-2.28,19.35,19.35,0,0,1-5.28-2.73,9.4,9.4,0,0,1-2.92-3.56,11.36,11.36,0,0,1-.91-4.74,14.14,14.14,0,0,1,5.51-11.52,18.76,18.76,0,0,1,6.1-3.15,25.5,25.5,0,0,1,7.61-1.09,33.66,33.66,0,0,1,10.16,1.59,41.25,41.25,0,0,1,9.43,4.33l-5,7.56a33.51,33.51,0,0,0-7.56-3.69,23.46,23.46,0,0,0-7.11-1.13,11,11,0,0,0-5.51,1.27,4.37,4.37,0,0,0-2.23,4.1,3.7,3.7,0,0,0,2.14,3.55,40.06,40.06,0,0,0,7.61,2.46c3.4.86,6.3,1.7,8.7,2.55a24.91,24.91,0,0,1,5.92,2.92,10.15,10.15,0,0,1,3.37,3.78,11.59,11.59,0,0,1,1.05,5.15,13.78,13.78,0,0,1-1.42,6.29,13.52,13.52,0,0,1-4,4.78,18.32,18.32,0,0,1-6.24,3,30.16,30.16,0,0,1-8.16,1Z"/><path class="cls-1" d="M56.37,99.2c-13.72-.83-28.1-10.75-28.1-37.37,0-13.72,2.64-37.69,28.11-40.17V0C15,1.49,0,32.57,0,60.34c0,29.6,15.87,48.29,31.91,55.72,9.75,4.63,17.69,5,24.46,5.29V99.2Z"/><path class="cls-1" d="M109,37.53C107.29,30.26,101.34,1.82,60.84,0V21.66c16.37,1.49,20.5,12.4,21.49,17.85l26.62-2Z"/><path class="cls-1" d="M83.16,78c-.66,7.61-4.8,18.85-22.32,21.17v22.15c9.59-.82,23.14-2,34.72-12.23,11.73-10.25,14.21-24,15.21-29.43L83.16,78Z"/><polygon class="cls-1" points="150.94 118.88 150.94 2.15 124.48 2.15 124.48 118.88 150.94 118.88 150.94 118.88"/><polygon class="cls-1" points="196.07 118.88 228.64 118.88 172.59 55.05 226 2.15 191.94 2.15 155.07 41.66 155.07 70.43 196.07 118.88 196.07 118.88"/><path class="cls-1" d="M280.8,99.2c-13.72-.83-28.1-10.75-28.1-37.37,0-13.72,2.64-37.69,28.1-40.17V0c-41.33,1.49-56.38,32.57-56.38,60.34,0,29.6,15.88,48.29,31.91,55.72,9.76,4.63,17.69,5,24.47,5.29V99.2Z"/><path class="cls-1" d="M333.37,37.53c-1.65-7.27-7.6-35.71-48.11-37.53V21.66c16.37,1.49,20.5,12.4,21.49,17.85l26.62-2Z"/><path class="cls-1" d="M307.58,78c-.66,7.61-4.79,18.85-22.32,21.17v22.15c9.59-.82,23.15-2,34.72-12.23,11.74-10.25,14.22-24,15.21-29.43L307.58,78Z"/><path class="cls-1" d="M390.46,56.06c0-6.44-4.6-13-13.9-13-9.88,0-14.48,7-14.48,13.43-.11,5.4,3.68,10.34,7.81,14.59,1.16,1,2.19,2.19,3.34,3.33,8.39-4.25,17.23-10.1,17.23-18.37ZM373.8,116.71c9.54,0,17.46-4.48,23.2-11.37L372.08,80.06c-7.46,4-15.16,10.23-15.16,20.22,0,9.19,7,16.43,16.88,16.43ZM368.86,77l-1.72-1.84C362.2,69.72,357,64,357.26,56.4c0-7.93,6-17.8,19.64-17.8,12.29,0,18.61,8.38,18.61,17.34,0,9.53-9.87,17.11-18.95,21.82L400,101a45.31,45.31,0,0,0,6.89-23.43c0-.58,0-3.34,0-3.34h4.82s0,2.76,0,3.34a50.53,50.53,0,0,1-8.26,26.76l13.43,13.32-4,3.79-12.63-12.74c-6.55,7.69-15.62,12.63-26.54,12.63-13.78,0-21.82-9.76-21.82-21,0-12.06,8.85-19,17-23.32Z"/></g></g></svg>