<svg xmlns="http://www.w3.org/2000/svg" viewBox="0 0 416.87 212.73"><title>ckc-logo</title><g id="Laag_2" data-name="Laag 2"><g id="Laag_1-2" data-name="Laag 1"><path d="M42.37,194.23a18.62,18.62,0,0,1-9.75-2.5,17.75,17.75,0,0,1-6.56-6.79v27.79H13.85V145.58H24.51v8.2a19.52,19.52,0,0,1,6.83-6.6A19,19,0,0,1,41,144.76a20.38,20.38,0,0,1,8.93,2A22.1,22.1,0,0,1,57,152a24.81,24.81,0,0,1,4.65,7.84,27,27,0,0,1,1.68,9.52,30.18,30.18,0,0,1-1.54,9.75A25.16,25.16,0,0,1,57.45,187a20.26,20.26,0,0,1-6.65,5.28A18.73,18.73,0,0,1,42.37,194.23Zm-4-10.38a11,11,0,0,0,5.06-1.19,12.13,12.13,0,0,0,4-3.19,15,15,0,0,0,2.55-4.64,16.57,16.57,0,0,0,.91-5.47,15.38,15.38,0,0,0-1-5.6,13.8,13.8,0,0,0-2.78-4.51,12.85,12.85,0,0,0-4.19-3,12.55,12.55,0,0,0-5.24-1.09,11.58,11.58,0,0,0-3.55.59,12.51,12.51,0,0,0-3.37,1.68A15,15,0,0,0,27.93,160a10.65,10.65,0,0,0-1.87,3.19v11.21a16.19,16.19,0,0,0,5,6.79A11.49,11.49,0,0,0,38.36,183.85Z"/><path d="M87.48,194.23A18.29,18.29,0,0,1,81,193.1a15.53,15.53,0,0,1-5.2-3.2,14.77,14.77,0,0,1-3.41-4.78,14.45,14.45,0,0,1-1.23-6,13.25,13.25,0,0,1,1.5-6.24A14.39,14.39,0,0,1,76.86,168a20.84,20.84,0,0,1,6.43-3.14,28,28,0,0,1,8.2-1.14,34.89,34.89,0,0,1,6.24.55,25.14,25.14,0,0,1,5.42,1.55v-2.74q0-4.73-2.69-7.29c-1.79-1.69-4.45-2.55-8-2.55A21.14,21.14,0,0,0,85,154.6a35,35,0,0,0-7.48,4l-3.73-7.74a35.27,35.27,0,0,1,19.86-6.11q10.31,0,16,5.06t5.7,14.62v14.85a4.07,4.07,0,0,0,.73,2.73,3.46,3.46,0,0,0,2.55.91v10.39a28.56,28.56,0,0,1-3.24.5c-1,.1-1.87.14-2.59.14a8.52,8.52,0,0,1-5.29-1.59,6.56,6.56,0,0,1-2.27-4.06l-.28-2.64a21.18,21.18,0,0,1-7.74,6.38A22.36,22.36,0,0,1,87.48,194.23Zm3.46-8.93a16,16,0,0,0,5.88-1.09,10.69,10.69,0,0,0,4.32-2.91,4.4,4.4,0,0,0,2-3.47v-5.46a29.24,29.24,0,0,0-4.74-1.32,25,25,0,0,0-4.92-.5,13,13,0,0,0-7.74,2.14,6.42,6.42,0,0,0-3,5.42,6.54,6.54,0,0,0,2.37,5.15A8.62,8.62,0,0,0,90.94,185.3Z"/><path d="M158.36,156.15a24,24,0,0,0-9.93,2.14,12.53,12.53,0,0,0-6.29,6.15v28.88h-12.2V145.58h11.2v10.2a22.18,22.18,0,0,1,6.43-7.92,13.55,13.55,0,0,1,8.33-3c.67,0,1.17,0,1.5.05a8.91,8.91,0,0,1,1,.13Z"/><path d="M198,190.86a53.26,53.26,0,0,1-6.06,2.19,25.71,25.71,0,0,1-7.52,1.09,17.15,17.15,0,0,1-4.78-.64,10.41,10.41,0,0,1-3.92-2,10.16,10.16,0,0,1-2.69-3.65,13.15,13.15,0,0,1-1-5.42V155h-6.2v-9.39H172V130.09h12.21v15.49h10.11V155H184.21v23.32a4.25,4.25,0,0,0,1.37,3.6,5.21,5.21,0,0,0,3.28,1,11.33,11.33,0,0,0,3.73-.63c1.22-.42,2.19-.79,2.92-1.1Z"/><path d="M251.06,193.32H238.85V166.54c0-3.83-.67-6.62-2-8.39a6.56,6.56,0,0,0-5.55-2.64,10.57,10.57,0,0,0-3.74.73,13.92,13.92,0,0,0-3.6,2,16.85,16.85,0,0,0-3,3.14,12.37,12.37,0,0,0-2,4v27.88H206.68V145.58h11v8.84a18.05,18.05,0,0,1,7.65-7.11,24.56,24.56,0,0,1,11.3-2.55A14.44,14.44,0,0,1,244,146.4a11.92,11.92,0,0,1,4.38,4.28,17.88,17.88,0,0,1,2.13,6,39,39,0,0,1,.6,6.84Z"/><path d="M286.84,194.23a26.42,26.42,0,0,1-10.38-2,23.31,23.31,0,0,1-13-13.16,25,25,0,0,1-1.78-9.38,26.74,26.74,0,0,1,1.73-9.62,23.36,23.36,0,0,1,5-7.92,24.07,24.07,0,0,1,8-5.43,26.71,26.71,0,0,1,10.53-2,26,26,0,0,1,10.43,2,24,24,0,0,1,7.84,5.38,23.1,23.1,0,0,1,4.92,7.83,26.22,26.22,0,0,1,1.68,9.3c0,.79,0,1.55,0,2.28a9.26,9.26,0,0,1-.24,1.82H274.64a14.12,14.12,0,0,0,1.37,5,12.17,12.17,0,0,0,6.74,6.1,12.73,12.73,0,0,0,4.55.82,14.13,14.13,0,0,0,6.88-1.77,9.39,9.39,0,0,0,4.42-4.69l10.48,2.91a21.27,21.27,0,0,1-8.43,9A26.22,26.22,0,0,1,286.84,194.23Zm12.4-28.79a12.77,12.77,0,0,0-4-8.61,12.18,12.18,0,0,0-8.52-3.23,12.35,12.35,0,0,0-4.61.86,12,12,0,0,0-3.78,2.42,12.36,12.36,0,0,0-2.68,3.74,13,13,0,0,0-1.23,4.82Z"/><path d="M350.79,156.15a24.06,24.06,0,0,0-9.94,2.14,12.55,12.55,0,0,0-6.28,6.15v28.88H322.36V145.58h11.21v10.2a22.15,22.15,0,0,1,6.42-7.92,13.55,13.55,0,0,1,8.34-3c.66,0,1.17,0,1.5.05a9.27,9.27,0,0,1,1,.13Z"/><path d="M379.39,194.23a42.63,42.63,0,0,1-6.05-.45,51.56,51.56,0,0,1-6.15-1.28,41.3,41.3,0,0,1-5.74-2,28.13,28.13,0,0,1-4.83-2.64l4.92-8.3q9.1,5.92,17.59,5.93a11.33,11.33,0,0,0,6-1.37,4.35,4.35,0,0,0,2.18-3.92,4,4,0,0,0-2.59-3.78,49.13,49.13,0,0,0-8.71-2.68,72.79,72.79,0,0,1-7.92-2.28,19.08,19.08,0,0,1-5.28-2.74,9.3,9.3,0,0,1-2.92-3.55,11.36,11.36,0,0,1-.91-4.74,14.14,14.14,0,0,1,5.51-11.52,18.76,18.76,0,0,1,6.1-3.15,25.45,25.45,0,0,1,7.61-1.09,33.66,33.66,0,0,1,10.16,1.59,41.25,41.25,0,0,1,9.43,4.33l-5,7.56a33.51,33.51,0,0,0-7.56-3.69,23.46,23.46,0,0,0-7.11-1.13,11,11,0,0,0-5.51,1.27,4.37,4.37,0,0,0-2.24,4.1,3.7,3.7,0,0,0,2.15,3.55,39.81,39.81,0,0,0,7.61,2.46c3.4.86,6.3,1.7,8.7,2.55a24.91,24.91,0,0,1,5.92,2.92,10.22,10.22,0,0,1,3.37,3.78,11.59,11.59,0,0,1,1.05,5.15,13.78,13.78,0,0,1-1.42,6.29,13.52,13.52,0,0,1-4,4.78,18.32,18.32,0,0,1-6.24,3A30.16,30.16,0,0,1,379.39,194.23Z"/><path d="M307.58,78c-.66,7.61-4.79,18.85-22.32,21.17v22.15c9.59-.82,23.15-2,34.72-12.23,11.74-10.25,14.22-24,15.21-29.43Zm25.79-40.5c-1.65-7.27-7.6-35.71-48.11-37.53V21.66c16.37,1.49,20.5,12.4,21.49,17.85ZM280.8,99.2c-13.72-.83-28.1-10.75-28.1-37.37,0-13.72,2.64-37.69,28.1-40.17V0c-41.33,1.49-56.37,32.57-56.37,60.34,0,29.6,15.87,48.29,31.9,55.72,9.76,4.63,17.69,5,24.47,5.29Zm-84.73,19.68h32.57l-56-63.83L226,2.15H191.94L155.07,41.66V70.43Zm-45.13,0V2.15H124.49V118.88ZM83.16,78c-.66,7.61-4.8,18.85-22.32,21.17v22.15c9.59-.82,23.14-2,34.72-12.23,11.73-10.25,14.21-24,15.21-29.43ZM109,37.53C107.29,30.26,101.34,1.82,60.84,0V21.66c16.37,1.49,20.5,12.4,21.49,17.85ZM56.37,99.2c-13.72-.83-28.1-10.75-28.1-37.37,0-13.72,2.65-37.69,28.1-40.17V0C15,1.49,0,32.57,0,60.34c0,29.6,15.87,48.29,31.91,55.72,9.75,4.63,17.69,5,24.46,5.29Z"/><path d="M368.86,77l-1.72-1.84C362.2,69.72,357,64,357.26,56.4c0-7.93,6-17.8,19.64-17.8,12.29,0,18.61,8.38,18.61,17.34,0,9.53-9.87,17.11-18.95,21.82L400,101a45.31,45.31,0,0,0,6.89-23.43c0-.58,0-3.34,0-3.34h4.82s0,2.76,0,3.34a50.62,50.62,0,0,1-8.26,26.76l13.43,13.32-4,3.79-12.63-12.74c-6.55,7.69-15.62,12.63-26.54,12.63-13.78,0-21.82-9.76-21.82-21C351.86,88.22,360.71,81.33,368.86,77Zm4.94,39.75c9.54,0,17.46-4.48,23.2-11.37L372.08,80.06c-7.46,4-15.16,10.23-15.16,20.22C356.92,109.47,363.93,116.71,373.8,116.71Zm16.66-60.65c0-6.44-4.6-13-13.9-13-9.88,0-14.47,7-14.47,13.43-.12,5.4,3.67,10.34,7.8,14.59,1.16,1,2.19,2.19,3.34,3.33C381.62,70.18,390.46,64.33,390.46,56.06Z"/></g></g></svg>