<svg id="Laag_1" data-name="Laag 1" xmlns="http://www.w3.org/2000/svg" viewBox="0 0 160 140"><defs><style>.cls-1{fill:#1d1d1b;}.cls-2{fill:#fff;}</style></defs><title>cos-logo</title><path class="cls-1" d="M70,0,0,70l70,70,70-70ZM42.57,100.57,12,70,42.57,39.43,73.14,70Z"/><path class="cls-2" d="M55.15,103.46a2.18,2.18,0,0,0-2.43.39c-.94.93-1,2.31.47,3.83,1,1,2.56,1.75,3.89.42a2.35,2.35,0,0,0,.44-2.35l2-.69a4.45,4.45,0,0,1-1,4.47,4.79,4.79,0,0,1-7-.15c-1.91-1.91-2.4-4.77-.29-6.88a4.31,4.31,0,0,1,4.61-1.07Z"/><path class="cls-2" d="M65.23,97.7c1.86,1.86,1,4.13-.32,5.43s-3.57,2.17-5.42.31L55.06,99l1.7-1.69L61,101.61a1.58,1.58,0,0,0,2.49.15c.89-.89.62-1.74-.14-2.51L59.11,95l1.7-1.69Z"/><path class="cls-2" d="M62.17,91.91l1.7-1.69,5.35,5.35,2.65-2.64,1.43,1.42L69,98.7Z"/><path class="cls-2" d="M66.18,87.91l5.24-5.24L72.73,84,71,85.76l5.47,5.47-1.7,1.69-5.47-5.47-1.77,1.78Z"/><path class="cls-2" d="M82.32,80.62c1.85,1.85,1,4.12-.33,5.42s-3.56,2.18-5.42.32l-4.42-4.42,1.7-1.7,4.27,4.28c.77.76,1.62,1,2.5.15s.62-1.74-.14-2.5L76.2,77.89l1.7-1.7Z"/><path class="cls-2" d="M89.41,73.52c1.86,1.86,1,4.12-.32,5.43s-3.56,2.17-5.42.31l-4.42-4.42,1.69-1.69,4.28,4.28a1.68,1.68,0,1,0,2.35-2.36L83.3,70.79,85,69.1Z"/><path class="cls-2" d="M86.36,67.73l3.39-3.39c1.52-1.52,3.16-1.75,4.69-.23a2.66,2.66,0,0,1,.42,3.23l4.28,1.18-1.89,1.89-3.78-1.1L92.4,70.38l2.43,2.44-1.69,1.7Zm4.78,1.4,1.55-1.56a1.29,1.29,0,0,0-1.83-1.83L89.31,67.3Z"/><path class="cls-2" d="M67.68,118.7a5.07,5.07,0,1,1-.15-7A4.79,4.79,0,0,1,67.68,118.7ZM62,113c-1,1-1.11,2.37.41,3.89,1,1,2.56,1.76,3.89.42s.63-2.84-.42-3.89S63.2,111.71,62,113Z"/><path class="cls-2" d="M65.18,107.25l3.37-3.36c1.83-1.83,3.46-1.56,4.8-.21.91.9,1.79,2.8-.53,5.12l-1.33,1.33,2.19,2.19L72,114Zm5,1.64,1.43-1.43a1.35,1.35,0,0,0,0-2.08,1.33,1.33,0,0,0-2.14.05l-1.38,1.38Z"/><path class="cls-2" d="M80,102a3.9,3.9,0,0,0,2.81-1.11c.45-.45,1.08-1.46.49-2-.35-.34-.77-.26-1.37.16l-1.64,1.18c-1.45,1.06-2.81,1.08-3.81.08-1.64-1.64-1-3.64.46-5.09a5.7,5.7,0,0,1,4.3-1.68l-.36,2.21a3.27,3.27,0,0,0-2.68,1c-.39.39-.72,1.21-.28,1.65s.84.24,1.59-.3l.76-.54c1.57-1.14,3.1-1.83,4.4-.54,2,2,.58,4.26-.69,5.53a5.51,5.51,0,0,1-4.44,1.68Z"/><path class="cls-2" d="M87.79,89.17a2.17,2.17,0,0,0-2.43.39c-.94.93-1,2.3.47,3.82,1,1,2.55,1.76,3.89.42a2.33,2.33,0,0,0,.44-2.34l2-.69a4.44,4.44,0,0,1-1,4.46,4.78,4.78,0,0,1-7-.15c-1.91-1.9-2.41-4.76-.29-6.88a4.32,4.32,0,0,1,4.61-1.06Z"/><path class="cls-2" d="M87.75,84.68l1.7-1.7,2.44,2.44,2.52-2.52L92,80.46l1.7-1.7,6.78,6.79-1.69,1.69L95.9,84.38l-2.52,2.53,2.85,2.86-1.69,1.69Z"/><path class="cls-2" d="M105.14,81.25a5.07,5.07,0,1,1-.16-7A4.8,4.8,0,0,1,105.14,81.25ZM99.4,75.51c-1,1-1.1,2.36.42,3.89,1,1,2.55,1.75,3.89.42s.63-2.84-.42-3.89S100.66,74.25,99.4,75.51Z"/><path class="cls-2" d="M112.71,73.67a5.07,5.07,0,1,1-.15-7A4.79,4.79,0,0,1,112.71,73.67ZM107,67.93c-1,1-1.11,2.37.42,3.89,1,1,2.55,1.75,3.88.42s.63-2.84-.42-3.89S108.23,66.68,107,67.93Z"/><path class="cls-2" d="M110.22,62.22l1.69-1.7,5.36,5.36,2.64-2.65,1.43,1.43L117,69Z"/><path class="cls-2" d="M69.73,128l-.43-4.1-1.67,1.66-.46-.47,2.34-2.34.45.46.43,4.14,1.89-1.9.47.47L70.2,128.5Z"/><path class="cls-2" d="M71.52,120.6a2.39,2.39,0,1,1,.12,3.25A2.18,2.18,0,0,1,71.52,120.6Zm2.94,2.94c.79-.79.26-1.7-.27-2.23S72.74,120.24,72,121s-.25,1.71.28,2.24S73.67,124.33,74.46,123.54Z"/><path class="cls-2" d="M76.16,119.58a1.41,1.41,0,0,0,2.1.17,1.21,1.21,0,0,0,.18-1.62l.61-.48a2,2,0,0,1-.38,2.55,2.14,2.14,0,0,1-3.2-.13c-1-1-1.22-2.2-.18-3.23a2.09,2.09,0,0,1,3.18.18l.12.12Zm1.41-2.27a1.35,1.35,0,0,0-1.91,0,1.31,1.31,0,0,0,.07,1.83Z"/><path class="cls-2" d="M77.3,115l.53-.53-1-1,.55-.55,1,1,.6-.6.46.47-.59.6,2,2c.15.15.31.31.53.09a1.39,1.39,0,0,0,.27-.41l.47.47a3.53,3.53,0,0,1-.47.61c-.58.57-.84.3-1.21-.06l-2.18-2.19-.53.53Z"/><path class="cls-2" d="M81.77,114a1.41,1.41,0,0,0,2.1.17,1.21,1.21,0,0,0,.18-1.62l.61-.48a2,2,0,0,1-.38,2.54,2.14,2.14,0,0,1-3.2-.12c-1-1-1.22-2.19-.18-3.24a2.1,2.1,0,0,1,3.17.18l.13.14Zm1.41-2.28a1.36,1.36,0,0,0-1.91,0,1.31,1.31,0,0,0,.07,1.83Z"/><path class="cls-2" d="M83.32,109l.55-.55.55.55h0a1.62,1.62,0,0,1,.55-1.73l.6.61c-.12.1-.29.26-.38.35a1.16,1.16,0,0,0,.08,1.64l1.8,1.8-.56.55Z"/><path class="cls-2" d="M85.71,106.58l.51-.51.4.4h0a1.62,1.62,0,0,1,.41-1.38,1.37,1.37,0,0,1,1.49-.38,1.85,1.85,0,0,1,.42-1.53,1.39,1.39,0,0,1,2.21.12l2.12,2.12-.55.55-2.15-2.15a.75.75,0,0,0-1.19-.06,1,1,0,0,0-.13,1.47l2.11,2.1-.55.55-2.15-2.14a.75.75,0,0,0-1.19-.07,1,1,0,0,0-.13,1.47l2.11,2.1-.55.55Z"/><path class="cls-2" d="M93.23,102.5a1.41,1.41,0,0,0,2.1.17,1.18,1.18,0,0,0,.18-1.61l.61-.48a2,2,0,0,1-.38,2.54,2.14,2.14,0,0,1-3.19-.12c-1-1-1.22-2.2-.18-3.24a2.1,2.1,0,0,1,3.17.18l.13.13Zm1.42-2.27a1.35,1.35,0,0,0-1.91,0,1.31,1.31,0,0,0,.06,1.83Z"/><path class="cls-2" d="M96.93,98.81A1.41,1.41,0,0,0,99,99a1.21,1.21,0,0,0,.18-1.62l.61-.48a2,2,0,0,1-.39,2.55,2.14,2.14,0,0,1-3.19-.12c-1-1-1.22-2.2-.18-3.24a2.08,2.08,0,0,1,3.17.18l.13.12Zm1.41-2.27a1.34,1.34,0,0,0-1.91,0,1.29,1.29,0,0,0,.07,1.82Z"/><path class="cls-2" d="M98.32,93.64l.58-.58.58.58v0a1.7,1.7,0,0,1,.57-1.81l.64.64c-.12.1-.3.27-.4.37a1.21,1.21,0,0,0,.08,1.72l1.89,1.89-.57.58Z"/></svg>