<svg id="Laag_1" data-name="Laag 1" xmlns="http://www.w3.org/2000/svg" viewBox="0 0 160 93"><title>dal-logo</title><path d="M2.08,24.91V.89H7.52v24Zm6.32,0V20.45h1A11.53,11.53,0,0,0,13.27,20c2.72-1,3.44-4.25,3.44-7.32,0-2.45-.55-5.61-3.17-6.77C12.35,5.41,11,5.38,8.4,5.34V.89H11c4.67,0,7.29,1.46,9.12,4a13.73,13.73,0,0,1,2.32,8A12.93,12.93,0,0,1,19.09,22c-2.62,2.65-6,2.89-8.64,2.89Z"/><path d="M26.21,24.91V.89h5.41v24Z"/><path d="M46.94,25.49h-.48c-8.67,0-11-7.25-11-12.32,0-8.88,5.65-12.8,11.43-12.9V4.83c-2.21.21-5.78,1.81-5.78,7.79,0,7.56,4.25,8.07,5.78,8.24Zm.41-13.95H58.17c0,3.26-.2,13.33-.2,13.33H54.16L53.88,22a8.43,8.43,0,0,1-6,3.4V20.86c1.73-.24,4.39-.75,5.48-5h-6Zm5.44-2.79c-.91-3-2.55-3.68-4.93-3.92V.24C53,.44,57,2.52,58.07,8.44Z"/><path d="M63.12,24.91V.89h5.41v24Z"/><path d="M70.81.89h6.3V5.34h-6.3Zm7.15,24V.89H83.4v24ZM84.29,5.34V.89h6.33V5.34Z"/><path d="M87,24.91l8.27-24h6.16l8.51,24h-6.1l-1.56-5.11H95.49l1.29-4.39h4.12l-2.55-8.5L93,24.91Z"/><path d="M112.48,24.91V.89h5.45v24Zm6.3,0V20.38h10.55v4.53Z"/><path d="M0,59l8.27-24h6.16l8.5,24H16.84l-1.56-5.1H8.54l1.29-4.39H14L11.4,41,6.09,59Z"/><path d="M25.46,59v-24h5.41V59Zm6.3-8.84V45.75h2.48c1.87,0,4.9,0,4.9-3.37,0-2.92-2.62-2.92-4.35-2.92h-3V34.93H35.6c2.32,0,4.56.07,6.44,1.43a6.28,6.28,0,0,1,2.38,5.21c0,3.74-2.28,5.54-4.29,5.82a3.78,3.78,0,0,1,2.55,1.9c.51.92.58,1.33,1.16,4.93A10,10,0,0,0,45.57,59H39.86a8.09,8.09,0,0,1-1.19-3.33c-.17-.85-.24-1.77-.41-2.62-.55-2.69-1.8-2.89-3.95-2.89Z"/><path d="M46.34,34.93h6.29v4.46H46.34Zm7.14,24v-24h5.45V59Zm6.33-19.56V34.93h6.33v4.46Z"/><path d="M2.11,93V69H7.55V93ZM8.4,93V88.47H19V93Z"/><path d="M20.56,93l8.27-24H35L43.5,93H37.41l-1.57-5.1H29.1l1.3-4.39h4.11L32,75,26.65,93Z"/><path d="M46.1,93V69h5.44V93ZM55,88.54c2.35,0,5.24-.17,5.24-3.13,0-2.58-2.24-2.89-3.61-2.89H52.39V78.2h4.22c2.76,0,3.2-1.33,3.2-2.35,0-2.31-2.35-2.42-3.57-2.42H52.39V69h4.76c5.35,0,8,2.52,8,6a5.33,5.33,0,0,1-3.37,5,6.19,6.19,0,0,1,4,5.85c0,4.87-3.88,7.08-8.51,7.08h-4.9V88.54Z"/></svg>