<svg id="Laag_1" data-name="Laag 1" xmlns="http://www.w3.org/2000/svg" viewBox="0 0 201 53"><defs><style>.cls-1{fill:#5b5db9;}.cls-2{fill:#b4b5df;}</style></defs><title>footer-logos</title><path class="cls-1" d="M103.59,0,77.13,26.46l26.46,26.47,26.46-26.47ZM93.22,38,81.66,26.46,93.22,14.91l11.56,11.55Z"/><polygon class="cls-2" points="122.46 23.9 121.46 24.91 119.44 22.88 118.79 23.52 121.36 26.09 123 24.44 122.46 23.9"/><polygon class="cls-2" points="103.31 33.06 105.38 35.13 106.02 34.49 103.95 32.42 104.62 31.75 104.13 31.25 102.14 33.23 102.64 33.73 103.31 33.06"/><path class="cls-2" d="M104.86,39.2a1.15,1.15,0,0,0-1.82.07l-1.27,1.28,2.56,2.56.65-.65-.83-.83.5-.5C105.53,40.25,105.2,39.54,104.86,39.2Zm-.65,1.42-.54.55-.78-.79.52-.52a.55.55,0,1,1,.8.76Z"/><polygon class="cls-2" points="104.84 35.67 104.3 35.13 103.3 36.13 101.27 34.11 100.63 34.75 103.2 37.31 104.84 35.67"/><path class="cls-2" d="M101.67,39a1.39,1.39,0,0,0,.12-2.05l-1.67-1.68-.65.64,1.62,1.62c.29.29.39.62.06.95a.6.6,0,0,1-1-.06l-1.61-1.62-.65.65,1.68,1.67A1.39,1.39,0,0,0,101.67,39Z"/><path class="cls-2" d="M99.62,39.72l-.75.26a.9.9,0,0,1-.16.89,1,1,0,0,1-1.47-.16c-.58-.58-.54-1.1-.18-1.45a.83.83,0,0,1,.91-.15l.26-.76a1.63,1.63,0,0,0-1.74.4,1.76,1.76,0,0,0,.11,2.6,1.81,1.81,0,0,0,2.65.06A1.69,1.69,0,0,0,99.62,39.72Z"/><path class="cls-2" d="M108.12,32.53a1.39,1.39,0,0,0,.13-2.05l-1.67-1.67-.65.64,1.62,1.61c.29.29.39.62.06.95a.6.6,0,0,1-1-.06L105,30.34l-.64.64,1.67,1.67A1.39,1.39,0,0,0,108.12,32.53Z"/><path class="cls-2" d="M107.35,38.56l-.17.81a2.08,2.08,0,0,0,1.68-.64c.48-.48,1-1.32.26-2.09-.49-.49-1.07-.22-1.67.2l-.28.21c-.29.2-.47.25-.6.11s0-.47.1-.62a1.28,1.28,0,0,1,1-.37l.14-.83a2.13,2.13,0,0,0-1.62.64A1.28,1.28,0,0,0,106,37.9a1,1,0,0,0,1.44,0l.62-.45c.23-.15.39-.19.52-.06s0,.61-.19.78A1.46,1.46,0,0,1,107.35,38.56Z"/><path class="cls-2" d="M113,27.53l-.92-.92.4-.41,1.43.42.72-.72L113,25.46a1,1,0,0,0-.16-1.22,1.13,1.13,0,0,0-1.77.08l-1.29,1.29,2.57,2.56Zm-2.09-2.09.59-.59a.44.44,0,0,1,.69,0,.45.45,0,0,1,0,.69l-.59.58Z"/><polygon class="cls-2" points="114.46 32.98 115.1 32.34 112.54 29.78 111.9 30.42 112.82 31.34 111.86 32.3 110.94 31.37 110.3 32.01 112.87 34.58 113.51 33.94 112.43 32.86 113.38 31.9 114.46 32.98"/><path class="cls-2" d="M110.81,29.85a1.41,1.41,0,0,0,.12-2.06l-1.67-1.67-.64.64,1.61,1.62a.6.6,0,0,1,.06.95c-.33.33-.66.23-1-.06l-1.61-1.62-.64.65L108.76,30A1.39,1.39,0,0,0,110.81,29.85Z"/><path class="cls-2" d="M111.59,36a1.69,1.69,0,0,0,.37-1.69l-.75.27a.88.88,0,0,1-.16.88,1,1,0,0,1-1.47-.16c-.58-.57-.54-1.09-.18-1.44a.8.8,0,0,1,.91-.15l.26-.77a1.63,1.63,0,0,0-1.74.4,1.78,1.78,0,0,0,.1,2.61A1.82,1.82,0,0,0,111.59,36Z"/><polygon class="cls-2" points="103.74 48.16 103.58 46.59 103.4 46.42 102.52 47.3 102.7 47.48 103.33 46.85 103.49 48.4 103.67 48.58 104.63 47.62 104.45 47.44 103.74 48.16"/><path class="cls-2" d="M109.34,40.9l.14-.13-.23-.23a.6.6,0,0,0-.2.65h0l-.21-.21-.2.21,1.21,1.21.21-.21-.68-.68A.44.44,0,0,1,109.34,40.9Z"/><path class="cls-2" d="M108.9,42.54a.44.44,0,0,1-.07.61.53.53,0,0,1-.79-.06l.92-.92,0-.05a.81.81,0,1,0-1.13,1.15.81.81,0,0,0,1.21,0,.76.76,0,0,0,.14-1Zm-1.05-.31a.51.51,0,0,1,.72,0l-.69.69A.49.49,0,0,1,107.85,42.23Z"/><path class="cls-2" d="M115,35.09l.16-.14-.24-.24a.64.64,0,0,0-.22.68h0l-.22-.22-.22.22,1.27,1.27.22-.21-.71-.72A.46.46,0,0,1,115,35.09Z"/><path class="cls-2" d="M114.63,36.81a.44.44,0,0,1-.07.61.53.53,0,0,1-.79-.06l.92-.93,0,0a.81.81,0,1,0-1.13,1.15.81.81,0,0,0,1.21.05.75.75,0,0,0,.14-1Zm-1-.31a.51.51,0,0,1,.73,0l-.7.69A.5.5,0,0,1,113.58,36.5Z"/><path class="cls-2" d="M107.91,44.05c-.09.08-.15,0-.2,0l-.78-.77.23-.22-.18-.18-.22.22-.38-.37-.21.2.38.38-.2.2.18.18.2-.2.82.83c.14.13.24.23.46,0a2,2,0,0,0,.18-.23l-.18-.18A.86.86,0,0,1,107.91,44.05Z"/><path class="cls-2" d="M117,25.14a1.92,1.92,0,1,0,2.65.06A1.81,1.81,0,0,0,117,25.14Zm2.17,2.17a1,1,0,0,1-1.47-.16c-.58-.57-.54-1.09-.16-1.47a1.18,1.18,0,0,1,1.63,1.63Z"/><path class="cls-2" d="M110.76,39a.73.73,0,0,0-.16.58.52.52,0,0,0-.56.14.63.63,0,0,0-.16.53h0l-.15-.15-.19.19,1.21,1.21.21-.2-.8-.8a.38.38,0,0,1,0-.55.28.28,0,0,1,.45,0l.81.81.21-.21-.79-.79a.39.39,0,0,1,0-.56.3.3,0,0,1,.46,0l.81.81.2-.21-.8-.8A.52.52,0,0,0,110.76,39Z"/><path class="cls-2" d="M113.24,38.2a.46.46,0,0,1-.07.61.54.54,0,0,1-.8-.06l.92-.92,0,0a.79.79,0,0,0-1.2-.06.78.78,0,0,0,.06,1.22.82.82,0,0,0,1.21.05.78.78,0,0,0,.15-1Zm-1-.3a.51.51,0,0,1,.72,0l-.7.7A.49.49,0,0,1,112.19,37.9Z"/><path class="cls-2" d="M102.66,42.22a1.84,1.84,0,1,0,0,2.66A1.81,1.81,0,0,0,102.66,42.22Zm-.49,2.11c-.5.51-1.09.22-1.47-.15-.57-.58-.53-1.1-.15-1.47s1.06-.25,1.47.16A1,1,0,0,1,102.17,44.33Z"/><path class="cls-2" d="M106.78,44.66a.46.46,0,0,1-.07.61.53.53,0,0,1-.79-.06l.92-.92,0,0a.81.81,0,1,0-1.13,1.15.81.81,0,0,0,1.21,0,.76.76,0,0,0,.14-1Zm-1-.31a.51.51,0,0,1,.72,0l-.69.69A.49.49,0,0,1,105.73,44.35Z"/><path class="cls-2" d="M104.17,45.59a.9.9,0,1,0,1.23,0A.82.82,0,0,0,104.17,45.59Zm1.11,1.12a.58.58,0,0,1-.85-.11c-.2-.2-.4-.54-.1-.84s.64-.1.84.1S105.58,46.41,105.28,46.71Z"/><path class="cls-2" d="M114.16,28a1.92,1.92,0,1,0,2.66,0A1.82,1.82,0,0,0,114.16,28Zm2.17,2.16c-.5.51-1.09.22-1.47-.15-.57-.58-.53-1.1-.15-1.47a1.17,1.17,0,0,1,1.62,1.62Z"/><path class="cls-1" d="M151.24,17.89V8.5h2.13v9.39Zm2.47,0V16.15h.39a4.36,4.36,0,0,0,1.52-.18c1.06-.37,1.34-1.66,1.34-2.86,0-.95-.21-2.19-1.24-2.64a5.31,5.31,0,0,0-2-.23V8.5h1a3.91,3.91,0,0,1,3.56,1.58,5.33,5.33,0,0,1,.91,3.11,5.06,5.06,0,0,1-1.32,3.57,4.45,4.45,0,0,1-3.38,1.13Z"/><path class="cls-1" d="M160.68,17.89V8.5h2.11v9.39Z"/><path class="cls-1" d="M168.78,18.12h-.18c-3.4,0-4.29-2.84-4.29-4.82,0-3.47,2.21-5,4.47-5V10c-.86.08-2.26.7-2.26,3.05,0,2.95,1.66,3.15,2.26,3.22Zm.16-5.46h4.23c0,1.28-.08,5.22-.08,5.22H171.6l-.1-1.12a3.31,3.31,0,0,1-2.36,1.33V16.31a2.28,2.28,0,0,0,2.14-1.95h-2.34Zm2.13-1.09A1.9,1.9,0,0,0,169.14,10V8.24c2,.08,3.58.89,4,3.21Z"/><path class="cls-1" d="M175.11,17.89V8.5h2.11v9.39Z"/><path class="cls-1" d="M178.12,8.5h2.46v1.74h-2.46Zm2.79,9.39V8.5H183v9.39Zm2.48-7.65V8.5h2.47v1.74Z"/><path class="cls-1" d="M184.43,17.89l3.23-9.39h2.41l3.33,9.39H191l-.62-2h-2.63l.5-1.71h1.61l-1-3.33-2.08,7Z"/><path class="cls-1" d="M194.41,17.89V8.5h2.13v9.39Zm2.47,0V16.12H201v1.77Z"/><path class="cls-1" d="M150.43,31.2l3.23-9.39h2.41l3.32,9.39H157l-.61-2h-2.63l.5-1.72h1.61l-1-3.33-2.07,7Z"/><path class="cls-1" d="M160.38,31.2V21.81h2.12V31.2Zm2.47-3.46V26h1c.73,0,1.91,0,1.91-1.32,0-1.14-1-1.14-1.7-1.14h-1.18V21.81h1.5a4.08,4.08,0,0,1,2.51.56,2.44,2.44,0,0,1,.94,2,2.09,2.09,0,0,1-1.68,2.28,1.53,1.53,0,0,1,1,.74,5.36,5.36,0,0,1,.45,1.93,3.9,3.9,0,0,0,.68,1.85H166a3.09,3.09,0,0,1-.46-1.3c-.07-.33-.1-.69-.16-1-.22-1.06-.71-1.14-1.55-1.14Z"/><path class="cls-1" d="M168.55,21.81H171v1.74h-2.46Zm2.79,9.39V21.81h2.13V31.2Zm2.47-7.65V21.81h2.48v1.74Z"/><path class="cls-1" d="M151.25,44.52v-9.4h2.13v9.4Zm2.46,0V42.75h4.13v1.77Z"/><path class="cls-1" d="M158.47,44.52l3.23-9.4h2.41l3.33,9.4h-2.39l-.61-2h-2.63l.5-1.71h1.61l-1-3.33-2.07,7Z"/><path class="cls-1" d="M168.45,44.52v-9.4h2.13v9.4Zm3.49-1.75c.92,0,2.05-.06,2.05-1.22,0-1-.88-1.13-1.41-1.13h-1.67V38.73h1.65c1.08,0,1.25-.52,1.25-.92,0-.9-.91-.94-1.39-.94h-1.51V35.12h1.87c2.09,0,3.12,1,3.12,2.37a2.09,2.09,0,0,1-1.31,2,2.44,2.44,0,0,1,1.57,2.29c0,1.9-1.52,2.77-3.33,2.77h-1.92V42.77Z"/><path class="cls-1" d="M5.28,38.84a1.53,1.53,0,0,0,.7-.16,1.77,1.77,0,0,0,.54-.44,2.09,2.09,0,0,0,.35-.64A2.11,2.11,0,0,0,7,36.85a2.21,2.21,0,0,0-.14-.78,2.07,2.07,0,0,0-.38-.62A1.85,1.85,0,0,0,5.9,35,1.69,1.69,0,0,0,4.69,35a1.53,1.53,0,0,0-.46.23,2.57,2.57,0,0,0-.39.35,1.61,1.61,0,0,0-.25.44v1.55a2.27,2.27,0,0,0,.69.93,1.55,1.55,0,0,0,1,.37Zm.55,1.43a2.57,2.57,0,0,1-1.34-.34,2.54,2.54,0,0,1-.9-.94v3.83H1.91V33.57H3.37V34.7a2.76,2.76,0,0,1,1-.91,2.6,2.6,0,0,1,1.33-.33,2.76,2.76,0,0,1,1.22.27,3.07,3.07,0,0,1,1,.73,3.46,3.46,0,0,1,.64,1.07,3.9,3.9,0,0,1,.23,1.32,4.23,4.23,0,0,1-.21,1.34,3.69,3.69,0,0,1-.6,1.09A2.83,2.83,0,0,1,7,40a2.63,2.63,0,0,1-1.16.26Z"/><path class="cls-1" d="M12.52,39a2.24,2.24,0,0,0,.81-.15,1.47,1.47,0,0,0,.6-.4A.6.6,0,0,0,14.2,38v-.75a3.26,3.26,0,0,0-.65-.18,3.21,3.21,0,0,0-.68-.07,1.82,1.82,0,0,0-1.06.29.89.89,0,0,0-.42.75.91.91,0,0,0,.33.71,1.17,1.17,0,0,0,.8.28ZM12,40.27a2.42,2.42,0,0,1-.89-.16,2.07,2.07,0,0,1-.71-.44A1.9,1.9,0,0,1,10,39a1.93,1.93,0,0,1-.17-.83,1.79,1.79,0,0,1,.21-.86,1.93,1.93,0,0,1,.57-.67,2.85,2.85,0,0,1,.89-.44,4,4,0,0,1,1.13-.15,5,5,0,0,1,.86.07,3.06,3.06,0,0,1,.74.22V36a1.3,1.3,0,0,0-.37-1,1.5,1.5,0,0,0-1.1-.35,3,3,0,0,0-1,.18,4.56,4.56,0,0,0-1,.56l-.52-1.07a4.88,4.88,0,0,1,2.74-.84,3.22,3.22,0,0,1,2.2.69,2.58,2.58,0,0,1,.78,2v2a.62.62,0,0,0,.1.38.49.49,0,0,0,.35.12v1.43a2.36,2.36,0,0,1-.44.07,2.43,2.43,0,0,1-.36,0A1.17,1.17,0,0,1,14.8,40a.89.89,0,0,1-.31-.55l0-.37a2.88,2.88,0,0,1-1.06.88,3.1,3.1,0,0,1-1.35.3Z"/><path class="cls-1" d="M21.8,35a3.27,3.27,0,0,0-1.36.29,1.72,1.72,0,0,0-.87.85v4H17.89V33.57h1.54V35a3,3,0,0,1,.89-1.1,1.88,1.88,0,0,1,1.14-.41h.21l.13,0V35Z"/><path class="cls-1" d="M27.26,39.81a7.84,7.84,0,0,1-.84.3,3.52,3.52,0,0,1-1,.15,2.29,2.29,0,0,1-.66-.09,1.39,1.39,0,0,1-.54-.28,1.34,1.34,0,0,1-.37-.5,1.89,1.89,0,0,1-.14-.75V34.86h-.85V33.57h.85V31.44h1.68v2.13h1.39v1.29H25.36v3.21a.61.61,0,0,0,.19.5.71.71,0,0,0,.45.14,1.53,1.53,0,0,0,.52-.08l.4-.15.34,1.33Z"/><path class="cls-1" d="M34.57,40.14H32.89V36.46a2,2,0,0,0-.28-1.16.91.91,0,0,0-.77-.36,1.4,1.4,0,0,0-.51.1,2.06,2.06,0,0,0-.5.28,2.86,2.86,0,0,0-.42.43,1.93,1.93,0,0,0-.27.56v3.83H28.46V33.57H30v1.22a2.52,2.52,0,0,1,1.06-1,3.43,3.43,0,0,1,1.55-.35,2,2,0,0,1,1,.22,1.62,1.62,0,0,1,.6.59,2.48,2.48,0,0,1,.29.83,5,5,0,0,1,.09.94v4.1Z"/><path class="cls-1" d="M41.2,36.31a1.71,1.71,0,0,0-.55-1.19,1.64,1.64,0,0,0-1.17-.44,1.85,1.85,0,0,0-.63.11,1.51,1.51,0,0,0-.52.34,1.59,1.59,0,0,0-.37.51,1.62,1.62,0,0,0-.17.67Zm-1.71,4A3.68,3.68,0,0,1,38.06,40,3.31,3.31,0,0,1,37,39.27a3.22,3.22,0,0,1-.69-1.08A3.33,3.33,0,0,1,36,36.9a3.69,3.69,0,0,1,.24-1.33A3.26,3.26,0,0,1,37,34.48a3.46,3.46,0,0,1,1.1-.75,3.71,3.71,0,0,1,1.45-.27,3.36,3.36,0,0,1,2.51,1,3.19,3.19,0,0,1,.68,1.08,3.71,3.71,0,0,1,.23,1.28c0,.11,0,.22,0,.32a.9.9,0,0,1,0,.25H37.81a2.06,2.06,0,0,0,.19.69,1.65,1.65,0,0,0,.39.51,1.87,1.87,0,0,0,.54.33,1.9,1.9,0,0,0,.63.11,1.93,1.93,0,0,0,.94-.24,1.32,1.32,0,0,0,.61-.65l1.44.4a2.87,2.87,0,0,1-1.16,1.24,3.6,3.6,0,0,1-1.9.48Z"/><path class="cls-1" d="M48.3,35a3.32,3.32,0,0,0-1.37.29,1.76,1.76,0,0,0-.87.85v4H44.38V33.57h1.55V35a3,3,0,0,1,.88-1.1A1.9,1.9,0,0,1,48,33.47h.21l.13,0V35Z"/><path class="cls-1" d="M52.24,40.27a6.15,6.15,0,0,1-.84-.06,5.69,5.69,0,0,1-.84-.18,6.11,6.11,0,0,1-.79-.27,3.25,3.25,0,0,1-.67-.37l.68-1.14a4.47,4.47,0,0,0,2.42.82,1.62,1.62,0,0,0,.83-.19.61.61,0,0,0,.3-.54.54.54,0,0,0-.36-.52,6.76,6.76,0,0,0-1.2-.37,9.87,9.87,0,0,1-1.09-.32,2.62,2.62,0,0,1-.73-.37,1.42,1.42,0,0,1-.4-.49,1.64,1.64,0,0,1-.12-.65,1.93,1.93,0,0,1,.2-.91,2,2,0,0,1,.56-.68A2.38,2.38,0,0,1,51,33.6a3.49,3.49,0,0,1,1-.15,4.5,4.5,0,0,1,1.4.22,5.29,5.29,0,0,1,1.3.59l-.69,1a5,5,0,0,0-1-.51,3.33,3.33,0,0,0-1-.15,1.61,1.61,0,0,0-.76.17.62.62,0,0,0-.31.57.52.52,0,0,0,.3.49,6.11,6.11,0,0,0,1.05.34,10.39,10.39,0,0,1,1.19.35,3,3,0,0,1,.82.4,1.33,1.33,0,0,1,.46.52,1.55,1.55,0,0,1,.15.71,1.88,1.88,0,0,1-.2.86,1.92,1.92,0,0,1-.54.66,2.65,2.65,0,0,1-.86.42,4.35,4.35,0,0,1-1.12.14Z"/><path class="cls-1" d="M7.76,27.19C5.87,27.07,3.89,25.71,3.89,22c0-1.89.37-5.19,3.87-5.53v-3C2.07,13.73,0,18,0,21.84a8.14,8.14,0,0,0,4.39,7.67,8.27,8.27,0,0,0,3.37.73v-3ZM15,18.69c-.23-1-1.05-4.91-6.62-5.16v3a3,3,0,0,1,3,2.46L15,18.69Zm-3.55,5.58a3.12,3.12,0,0,1-3.07,2.92v3a7.76,7.76,0,0,0,4.78-1.69,6.81,6.81,0,0,0,2.09-4.05l-3.8-.23Zm9.33,5.62V13.82H17.14V29.89Zm6.22,0h4.48l-7.72-8.78,7.36-7.29H26.43l-5.08,5.44v4L27,29.89Zm11.66-2.7c-1.89-.12-3.87-1.48-3.87-5.15,0-1.89.37-5.19,3.87-5.53v-3C33,13.73,30.9,18,30.9,21.84c0,4.07,2.18,6.64,4.39,7.67a8.27,8.27,0,0,0,3.37.73v-3Zm7.24-8.5c-.23-1-1-4.91-6.62-5.16v3A3,3,0,0,1,42.23,19l3.67-.28Zm-3.55,5.58a3.12,3.12,0,0,1-3.07,2.92v3a7.76,7.76,0,0,0,4.78-1.69,6.81,6.81,0,0,0,2.09-4.05l-3.8-.23Z"/><path class="cls-1" d="M53.76,21.25a1.78,1.78,0,0,0-1.91-1.79,1.85,1.85,0,0,0-2,1.85,3.09,3.09,0,0,0,1.08,2c.16.14.3.3.46.46,1.15-.59,2.37-1.4,2.37-2.53ZM51.47,29.6A4.1,4.1,0,0,0,54.66,28l-3.43-3.48a3.31,3.31,0,0,0-2.09,2.78,2.25,2.25,0,0,0,2.33,2.27Zm-.68-5.48-.24-.25a3.81,3.81,0,0,1-1.36-2.58,2.5,2.5,0,0,1,2.7-2.45,2.37,2.37,0,0,1,2.56,2.39c0,1.31-1.35,2.36-2.6,3l3.22,3.2a6.26,6.26,0,0,0,1-3.23v-.46h.66v.46a7,7,0,0,1-1.13,3.69l1.85,1.83-.56.52L55.1,28.49a4.71,4.71,0,0,1-3.65,1.74,2.84,2.84,0,0,1-3-2.9,3.71,3.71,0,0,1,2.34-3.21Z"/></svg>